<svg width="36" height="37" viewBox="0 0 36 37" fill="none" xmlns="http://www.w3.org/2000/svg">
<path d="M25.5 7.5C27.1423 7.5 28.5731 8.09651 29.7383 9.26172C30.9035 10.4269 31.5 11.8577 31.5 13.5V23.5C31.5 25.1423 30.9035 26.5731 29.7383 27.7383C28.5731 28.9035 27.1423 29.5 25.5 29.5H10.5C8.85768 29.5 7.42693 28.9035 6.26172 27.7383C5.09651 26.5731 4.5 25.1423 4.5 23.5V13.5C4.5 11.8577 5.09651 10.4269 6.26172 9.26172C7.42693 8.09651 8.85768 7.5 10.5 7.5H25.5ZM10.5 17C10.3947 17 10.2972 17.0086 10.2061 17.0234L22.3096 19.9609H22.3105C22.3552 19.9709 22.3948 19.9709 22.4395 19.9609C22.4752 19.953 22.5203 19.9353 22.5791 19.8926L25.9531 17.0762C25.8661 17.046 25.7762 17.0225 25.6807 17.0107L25.498 17H10.5ZM10.5 12C10.0801 12 9.74546 12.1378 9.44238 12.4414C9.38755 12.4963 9.33912 12.5531 9.29492 12.6104C9.68672 12.5367 10.0888 12.5 10.5 12.5H25.5C25.9116 12.5 26.314 12.5366 26.7061 12.6104C26.6621 12.5534 26.6141 12.4969 26.5596 12.4424C26.2945 12.1773 26.0043 12.0379 25.6533 12.0068L25.499 12H10.5Z" fill="#FFD448" stroke="#3D395A" stroke-width="2"/>
</svg>
