<svg width="36" height="37" viewBox="0 0 36 37" fill="none" xmlns="http://www.w3.org/2000/svg">
<g clip-path="url(#clip0_101_11376)">
<path d="M14.625 29C14.625 28.8011 14.704 28.6103 14.8447 28.4697C14.9853 28.329 15.1761 28.25 15.375 28.25H20.625C20.8239 28.25 21.0147 28.329 21.1553 28.4697C21.296 28.6103 21.375 28.8011 21.375 29C21.375 29.1989 21.296 29.3897 21.1553 29.5303C21.0147 29.671 20.8239 29.75 20.625 29.75H15.375C15.1761 29.75 14.9853 29.671 14.8447 29.5303C14.704 29.3897 14.625 29.1989 14.625 29Z" fill="#3D395A"/>
<rect x="11" y="5.5" width="14" height="26" fill="#FFD448"/>
<path d="M15.213 4.25H21.75C21.78 4.25 21.81 4.252 21.84 4.256C22.17 4.259 22.467 4.2715 22.731 4.2935C23.2785 4.3385 23.7585 4.433 24.2025 4.658C24.9079 5.01784 25.4813 5.59176 25.8405 6.2975C26.067 6.7415 26.1615 7.2215 26.2065 7.7675C26.25 8.3 26.25 8.9555 26.25 9.7685V27.23C26.25 28.043 26.25 28.7 26.2065 29.2295C26.1615 29.777 26.067 30.257 25.8405 30.701C25.481 31.4062 24.9077 31.9795 24.2025 32.339C23.7585 32.5655 23.2785 32.66 22.7325 32.705C22.2 32.7485 21.5445 32.7485 20.7315 32.7485H15.27C14.457 32.7485 13.8 32.7485 13.2705 32.705C12.723 32.66 12.243 32.5655 11.799 32.339C11.0933 31.9798 10.5193 31.4064 10.1595 30.701C9.9345 30.257 9.84 29.777 9.795 29.231C9.75 28.7 9.75 28.043 9.75 27.23V9.77C9.75 8.957 9.75 8.3 9.7935 7.7705C9.8385 7.223 9.933 6.743 10.158 6.299C10.5176 5.59303 11.0915 5.01909 11.7975 4.6595C12.2415 4.4345 12.7215 4.34 13.2675 4.295C13.5315 4.273 13.829 4.2605 14.16 4.2575L14.25 4.25H15.213ZM13.716 5.768L13.3905 5.789C12.9375 5.825 12.6765 5.894 12.4785 5.9945C12.0548 6.21028 11.7103 6.55476 11.4945 6.9785C11.394 7.1765 11.325 7.4375 11.289 7.8905C11.25 8.354 11.25 8.948 11.25 9.8V27.2C11.25 28.052 11.25 28.6475 11.289 29.1095C11.325 29.5625 11.394 29.8235 11.4945 30.0215C11.7103 30.4452 12.0548 30.7897 12.4785 31.0055C12.6765 31.106 12.9375 31.175 13.3905 31.211C13.854 31.25 14.448 31.25 15.3 31.25H20.7C21.552 31.25 22.146 31.25 22.6095 31.211C23.064 31.175 23.3235 31.106 23.5215 31.0055C23.9452 30.7897 24.2897 30.4452 24.5055 30.0215C24.606 29.8235 24.675 29.5625 24.711 29.1095C24.75 28.6475 24.75 28.052 24.75 27.2V9.8C24.75 8.948 24.75 8.354 24.711 7.8905C24.675 7.4375 24.606 7.1765 24.5055 6.9785C24.2897 6.55476 23.9452 6.21028 23.5215 5.9945C23.3235 5.894 23.064 5.825 22.6095 5.789L22.284 5.768L22.149 6.173L22.119 6.263C21.993 6.644 21.8715 7.013 21.6315 7.301C21.4219 7.55163 21.1526 7.74557 20.8485 7.865C20.5005 8.0015 20.112 8 19.7115 8H16.2885C15.888 8 15.4995 8.0015 15.1515 7.865C14.8474 7.74557 14.5781 7.55163 14.3685 7.301C14.1285 7.013 14.007 6.644 13.881 6.2645L13.851 6.1745L13.716 5.768ZM15.291 5.75C15.453 6.2375 15.4875 6.3005 15.519 6.338C15.5671 6.39587 15.629 6.44074 15.699 6.4685C15.747 6.488 15.822 6.5 16.3845 6.5H19.6155C20.178 6.5 20.253 6.488 20.2995 6.47C20.3696 6.44182 20.4315 6.39642 20.4795 6.338C20.5125 6.3005 20.5455 6.2375 20.709 5.75H15.291Z" fill="#3D395A"/>
</g>
<defs>
<clipPath id="clip0_101_11376">
<rect width="36" height="36" fill="white" transform="translate(0 0.5)"/>
</clipPath>
</defs>
</svg>
