<svg width="36" height="37" viewBox="0 0 36 37" fill="none" xmlns="http://www.w3.org/2000/svg">
<g clip-path="url(#clip0_101_11393)">
<path d="M20.3096 5.5C21.768 5.5 23.0259 6.56288 23.2666 8.00488L23.8848 11.7002C25.789 13.3451 27 15.7845 27 18.5L26.9854 19.0078C26.9187 20.1911 26.6191 21.3515 26.1006 22.4209C25.5661 23.5233 24.8102 24.5013 23.8848 25.2998L23.2666 28.9951C23.0264 30.4341 21.7811 31.5 20.3096 31.5H15.7002C14.2346 31.5 12.9743 30.4395 12.7334 28.9941V28.9932L12.124 25.2998C10.2112 23.6558 9 21.2252 9 18.5C9 15.7746 10.2109 13.3432 12.124 11.6992L12.7334 8.00684V8.00586C12.9743 6.5605 14.2346 5.5 15.7002 5.5H20.3096ZM18 13.5C15.2423 13.5 13 15.7423 13 18.5C13 21.2577 15.2423 23.5 18 23.5C20.7577 23.5 23 21.2577 23 18.5C23 15.7423 20.7577 13.5 18 13.5Z" fill="#FFD448" stroke="#3D395A" stroke-width="2"/>
</g>
<defs>
<clipPath id="clip0_101_11393">
<rect width="36" height="36" fill="white" transform="translate(0 0.5)"/>
</clipPath>
</defs>
</svg>
