<svg width="35" height="37" viewBox="0 0 35 37" fill="none" xmlns="http://www.w3.org/2000/svg">
<g clip-path="url(#clip0_101_11399)">
<path d="M22.2803 13.2695C23.7545 13.8948 25.0103 14.9289 25.8936 16.2441C26.7768 17.5594 27.2487 19.099 27.25 20.6738L27.2402 21.0742C27.139 23.072 26.2831 24.9671 24.832 26.3867C23.2845 27.9007 21.1863 28.75 19 28.75C16.8137 28.75 14.7155 27.9007 13.168 26.3867C11.6203 24.8726 10.75 22.8175 10.75 20.6738L10.7559 20.3789C10.812 18.9074 11.2784 17.4772 12.1064 16.2441C12.9897 14.9289 14.2455 13.8948 15.7197 13.2695L15.8535 13.2129L15.9688 13.3008L16.2822 13.5391L17.6582 14.584L18.0771 14.9023L17.5654 15.0264C16.2718 15.3392 15.1235 16.0663 14.3018 17.0898C13.4801 18.1133 13.0314 19.375 13.0273 20.6748C13.0278 23.8877 15.7021 26.5107 19 26.5107C22.2979 26.5107 24.9722 23.8877 24.9727 20.6748L24.9658 20.4316C24.9103 19.2182 24.4685 18.0494 23.6982 17.0898C22.8765 16.0663 21.7282 15.3392 20.4346 15.0264L19.9229 14.9023L20.3418 14.584L22.0312 13.3008L22.1465 13.2129L22.2803 13.2695Z" fill="#3D395A" stroke="#3D395A" stroke-width="0.5"/>
<path d="M21.6787 8.5L21.9746 8.95898L23.5078 11.3438L24.002 12.1123L23.2803 12.6738L19.4473 15.6562L18.833 16.1338L18.2197 15.6562L16.6855 14.4629L14.3857 12.6738L13.6641 12.1123L14.1592 11.3438L15.6924 8.95898L15.9873 8.5H21.6787Z" fill="#FFD448" stroke="#3D395A" stroke-width="2"/>
</g>
<defs>
<clipPath id="clip0_101_11399">
<rect width="23" height="23" fill="white" transform="translate(7 7.5)"/>
</clipPath>
</defs>
</svg>
