<svg width="36" height="37" viewBox="0 0 36 37" fill="none" xmlns="http://www.w3.org/2000/svg">
<path d="M14.6667 13.9167V26.9167C14.6667 27.5125 14.1792 28 13.5833 28H12.5C11.9042 28 11.4167 27.5125 11.4167 26.9167V19.6258C10.68 20.1133 9.91083 20.4167 9.25 20.4167C7.08333 20.4167 6 18.25 6 17.1667V11.75C6 10.6667 7.08333 8.5 9.25 8.5C11.4167 8.5 14.6667 11.75 14.6667 13.9167ZM23.8744 8.5C20.581 8.5 17.916 11.165 17.916 14.4583C17.916 17.7517 20.581 20.4167 23.8744 20.4167C27.1677 20.4167 29.8327 17.7517 29.8327 14.4583C29.8327 11.165 27.1677 8.5 23.8744 8.5ZM21.7077 21.1533V26.9167C21.7077 27.5125 22.1952 28 22.791 28H24.9577C25.5535 28 26.041 27.5125 26.041 26.9167V21.1533C25.3585 21.3808 24.6327 21.5 23.8744 21.5C23.116 21.5 22.3902 21.3808 21.7077 21.1533Z" fill="#FFD448" stroke="#3D395A" stroke-width="2"/>
</svg>
